<?plantuml 1.2026.2?><svg xmlns="http://www.w3.org/2000/svg" xmlns:xlink="http://www.w3.org/1999/xlink" contentStyleType="text/css" data-diagram-type="DESCRIPTION" height="740px" preserveAspectRatio="none" style="width:332px;height:740px;" version="1.1" viewBox="0 0 332 740" width="332px" zoomAndPan="magnify"><defs/><g><!--cluster Sistema de Alquiler de Veh?culos--><g class="cluster" data-qualified-name="Sistema de Alquiler de Veh.culos" data-source-line="50" id="ent0005"><rect fill="#FAFAF7" height="727" rx="8" ry="8" style="stroke:#D8D4CB;stroke-width:1;" width="204" x="122.75" y="7"/><text fill="#57606A" font-family="'Segoe UI'" font-size="11" font-style="italic" lengthAdjust="spacing" textLength="180.5869" x="134.4565" y="23.2104">Sistema de Alquiler de Veh&#237;culos</text></g><!--entity UC01--><g class="entity" data-qualified-name="Sistema de Alquiler de Veh.culos.UC01" data-source-line="51" id="ent0006"><ellipse cx="224.2473" cy="67.001" fill="#E7EEF9" rx="55.6573" ry="20.771" style="stroke:#1F4C87;stroke-width:1.2;"/><text fill="#1F2328" font-family="'Segoe UI'" font-size="11" lengthAdjust="spacing" textLength="33.6982" x="207.3981" y="59.469">CU-01</text><text fill="#1F2328" font-family="'Segoe UI'" font-size="11" lengthAdjust="spacing" textLength="91.5879" x="178.4533" y="72.2737">Registrar cuenta</text></g><!--entity UC02--><g class="entity" data-qualified-name="Sistema de Alquiler de Veh.culos.UC02" data-source-line="52" id="ent0007"><ellipse cx="224.2514" cy="150.0045" fill="#E7EEF9" rx="60.2614" ry="26.8245" style="stroke:#1F4C87;stroke-width:1.2;"/><text fill="#1F2328" font-family="'Segoe UI'" font-size="11" lengthAdjust="spacing" textLength="33.6982" x="207.4022" y="136.5394">CU-02</text><text fill="#1F2328" font-family="'Segoe UI'" font-size="11" lengthAdjust="spacing" textLength="103.5547" x="172.474" y="149.3441">Consultar cat&#225;logo</text><text fill="#1F2328" font-family="'Segoe UI'" font-size="11" lengthAdjust="spacing" textLength="86.3726" x="181.0651" y="162.1488">y disponibilidad</text></g><!--entity UC03--><g class="entity" data-qualified-name="Sistema de Alquiler de Veh.culos.UC03" data-source-line="53" id="ent0008"><ellipse cx="224.2517" cy="329.9951" fill="#E7EEF9" rx="53.2117" ry="28.5651" style="stroke:#1F4C87;stroke-width:1.2;"/><text fill="#1F2328" font-family="'Segoe UI'" font-size="11" lengthAdjust="spacing" textLength="33.6982" x="207.4026" y="315.217">CU-03</text><text fill="#1F2328" font-family="'Segoe UI'" font-size="11" lengthAdjust="spacing" textLength="49.2046" x="199.6494" y="328.0217">Reservar</text><text fill="#1F2328" font-family="'Segoe UI'" font-size="11" lengthAdjust="spacing" textLength="83.1606" x="182.6714" y="340.8264">veh&#237;culo online</text></g><!--entity UC04--><g class="entity" data-qualified-name="Sistema de Alquiler de Veh.culos.UC04" data-source-line="54" id="ent0009"><ellipse cx="224.2549" cy="239.0039" fill="#E7EEF9" rx="33.6049" ry="27.4839" style="stroke:#1F4C87;stroke-width:1.2;"/><text fill="#1F2328" font-family="'Segoe UI'" font-size="11" lengthAdjust="spacing" textLength="33.6982" x="207.4058" y="227.8692">CU-04</text><text fill="#1F2328" font-family="'Segoe UI'" font-size="11" lengthAdjust="spacing" textLength="48.5278" x="199.991" y="240.6738">Cancelar</text><text fill="#1F2328" font-family="'Segoe UI'" font-size="11" lengthAdjust="spacing" textLength="41.5615" x="203.4742" y="253.4785">reserva</text></g><!--entity UC05--><g class="entity" data-qualified-name="Sistema de Alquiler de Veh.culos.UC05" data-source-line="55" id="ent0010"><ellipse cx="224.2542" cy="692.9973" fill="#E7EEF9" rx="43.9142" ry="25.0073" style="stroke:#1F4C87;stroke-width:1.2;"/><text fill="#1F2328" font-family="'Segoe UI'" font-size="11" lengthAdjust="spacing" textLength="33.6982" x="207.405" y="683.095">CU-05</text><text fill="#1F2328" font-family="'Segoe UI'" font-size="11" lengthAdjust="spacing" textLength="78.2891" x="185.1096" y="695.8997">Iniciar alquiler</text><text fill="#1F2328" font-family="'Segoe UI'" font-size="11" lengthAdjust="spacing" textLength="38.4946" x="205.0068" y="708.7044">(retiro)</text></g><!--entity UC06--><g class="entity" data-qualified-name="Sistema de Alquiler de Veh.culos.UC06" data-source-line="56" id="ent0011"><ellipse cx="224.2476" cy="604.0045" fill="#E7EEF9" rx="60.2976" ry="28.5745" style="stroke:#1F4C87;stroke-width:1.2;"/><text fill="#1F2328" font-family="'Segoe UI'" font-size="11" lengthAdjust="spacing" textLength="33.6982" x="207.3985" y="588.8654">CU-06</text><text fill="#1F2328" font-family="'Segoe UI'" font-size="11" lengthAdjust="spacing" textLength="90.895" x="178.8001" y="601.6701">Finalizar alquiler</text><text fill="#1F2328" font-family="'Segoe UI'" font-size="11" lengthAdjust="spacing" textLength="95.9868" x="176.2542" y="614.4748">y generar factura</text></g><!--entity UC07--><g class="entity" data-qualified-name="Sistema de Alquiler de Veh.culos.UC07" data-source-line="57" id="ent0012"><ellipse cx="224.2481" cy="512.0023" fill="#E7EEF9" rx="59.3781" ry="28.5723" style="stroke:#1F4C87;stroke-width:1.2;"/><text fill="#1F2328" font-family="'Segoe UI'" font-size="11" lengthAdjust="spacing" textLength="33.6982" x="207.399" y="496.9034">CU-07</text><text fill="#1F2328" font-family="'Segoe UI'" font-size="11" lengthAdjust="spacing" textLength="84.3584" x="182.0689" y="509.7081">Enviar veh&#237;culo</text><text fill="#1F2328" font-family="'Segoe UI'" font-size="11" lengthAdjust="spacing" textLength="94.3271" x="177.0846" y="522.5128">a mantenimiento</text></g><!--entity UC08--><g class="entity" data-qualified-name="Sistema de Alquiler de Veh.culos.UC08" data-source-line="58" id="ent0013"><ellipse cx="224.2547" cy="421" fill="#E7EEF9" rx="66.9247" ry="27.4" style="stroke:#1F4C87;stroke-width:1.2;"/><text fill="#1F2328" font-family="'Segoe UI'" font-size="11" lengthAdjust="spacing" textLength="33.6982" x="207.4055" y="406.7675">CU-08</text><text fill="#1F2328" font-family="'Segoe UI'" font-size="11" lengthAdjust="spacing" textLength="113.5986" x="167.4553" y="419.5722">Registrar devoluci&#243;n</text><text fill="#1F2328" font-family="'Segoe UI'" font-size="11" lengthAdjust="spacing" textLength="101.3364" x="173.5864" y="432.3769">de mantenimiento</text></g><!--entity A1--><g class="entity" data-qualified-name="A1" data-source-line="46" id="ent0002"><ellipse cx="40.3757" cy="47.53" fill="#F1F1F1" rx="8" ry="8" style="stroke:#1F4C87;stroke-width:1.4;"/><path d="M40.3757,55.53 L40.3757,82.53 M27.3757,63.53 L53.3757,63.53 M40.3757,82.53 L27.3757,97.53 M40.3757,82.53 L53.3757,97.53" fill="none" style="stroke:#1F4C87;stroke-width:1.4;"/><text fill="#1F2328" font-family="'Segoe UI'" font-size="12" lengthAdjust="spacing" textLength="42.123" x="14.24" y="115.0687">Cliente</text><text fill="#1F2328" font-family="'Segoe UI'" font-size="12" lengthAdjust="spacing" textLength="52.2715" x="14.24" y="129.0374">an&#243;nimo</text></g><!--entity A2--><g class="entity" data-qualified-name="A2" data-source-line="47" id="ent0003"><ellipse cx="40.3754" cy="199.53" fill="#F1F1F1" rx="8" ry="8" style="stroke:#1F4C87;stroke-width:1.4;"/><path d="M40.3754,207.53 L40.3754,234.53 M27.3754,215.53 L53.3754,215.53 M40.3754,234.53 L27.3754,249.53 M40.3754,234.53 L53.3754,249.53" fill="none" style="stroke:#1F4C87;stroke-width:1.4;"/><text fill="#1F2328" font-family="'Segoe UI'" font-size="12" lengthAdjust="spacing" textLength="42.123" x="9.64" y="267.0687">Cliente</text><text fill="#1F2328" font-family="'Segoe UI'" font-size="12" lengthAdjust="spacing" textLength="61.4707" x="9.64" y="281.0374">registrado</text></g><!--entity A3--><g class="entity" data-qualified-name="A3" data-source-line="48" id="ent0004"><ellipse cx="40.374" cy="518.53" fill="#F1F1F1" rx="8" ry="8" style="stroke:#1F4C87;stroke-width:1.4;"/><path d="M40.374,526.53 L40.374,553.53 M27.374,534.53 L53.374,534.53 M40.374,553.53 L27.374,568.53 M40.374,553.53 L53.374,568.53" fill="none" style="stroke:#1F4C87;stroke-width:1.4;"/><text fill="#1F2328" font-family="'Segoe UI'" font-size="12" lengthAdjust="spacing" textLength="59.918" x="6" y="586.0687">Empleado</text><text fill="#1F2328" font-family="'Segoe UI'" font-size="12" lengthAdjust="spacing" textLength="68.748" x="6" y="600.0374">de sucursal</text></g><!--link A1 to UC01--><g class="link" data-entity-1="ent0002" data-entity-2="ent0006" data-link-type="dependency" data-source-line="61" id="lnk14"><path d="M71,83.74 C97.88,80.79 132.156,77.0159 164.526,73.4559" fill="none" id="A1-to-UC01" style="stroke:#57606A;stroke-width:1.1;"/><polygon fill="#57606A" points="170.49,72.8,161.1067,69.8078,165.52,73.3466,161.9812,77.7599,170.49,72.8" style="stroke:#57606A;stroke-width:1.1;"/></g><!--link A1 to UC02--><g class="link" data-entity-1="ent0002" data-entity-2="ent0007" data-link-type="dependency" data-source-line="62" id="lnk15"><path d="M71,97.26 C99.39,107.09 137.0209,120.1251 170.2009,131.6251" fill="none" id="A1-to-UC02" style="stroke:#57606A;stroke-width:1.1;"/><polygon fill="#57606A" points="175.87,133.59,168.6762,126.8632,171.1457,131.9526,166.0564,134.4221,175.87,133.59" style="stroke:#57606A;stroke-width:1.1;"/></g><!--link A2 to UC02--><g class="link" data-entity-1="ent0003" data-entity-2="ent0007" data-link-type="dependency" data-source-line="63" id="lnk16"><path d="M75.42,216.51 C87.58,208.91 101.54,200.67 114.75,194 C134.62,183.97 151.7476,176.6338 171.2476,169.0538" fill="none" id="A2-to-UC02" style="stroke:#57606A;stroke-width:1.1;"/><polygon fill="#57606A" points="176.84,166.88,167.0022,166.4125,172.1797,168.6915,169.9007,173.869,176.84,166.88" style="stroke:#57606A;stroke-width:1.1;"/></g><!--link A2 to UC03--><g class="link" data-entity-1="ent0003" data-entity-2="ent0008" data-link-type="dependency" data-source-line="64" id="lnk17"><path d="M75.48,261.37 C87.64,268.96 101.6,277.23 114.75,284 C135.85,294.87 154.5389,303.0775 174.7589,311.2675" fill="none" id="A2-to-UC03" style="stroke:#57606A;stroke-width:1.1;"/><polygon fill="#57606A" points="180.32,313.52,173.48,306.4338,175.6857,311.6429,170.4766,313.8487,180.32,313.52" style="stroke:#57606A;stroke-width:1.1;"/></g><!--link A2 to UC04--><g class="link" data-entity-1="ent0003" data-entity-2="ent0009" data-link-type="dependency" data-source-line="65" id="lnk18"><path d="M75.58,239 C108.51,239 151.96,239 184.42,239" fill="none" id="A2-to-UC04" style="stroke:#57606A;stroke-width:1.1;"/><polygon fill="#57606A" points="190.42,239,181.42,235,185.42,239,181.42,243,190.42,239" style="stroke:#57606A;stroke-width:1.1;"/></g><!--link A3 to UC05--><g class="link" data-entity-1="ent0004" data-entity-2="ent0010" data-link-type="dependency" data-source-line="66" id="lnk19"><path d="M73.06,607.21 C84.73,622.47 98.99,638.33 114.75,650 C135.26,665.19 156.1514,674.0341 177.8814,680.9341" fill="none" id="A3-to-UC05" style="stroke:#57606A;stroke-width:1.1;"/><polygon fill="#57606A" points="183.6,682.75,176.2326,676.2138,178.8345,681.2368,173.8115,683.8386,183.6,682.75" style="stroke:#57606A;stroke-width:1.1;"/></g><!--link A3 to UC06--><g class="link" data-entity-1="ent0004" data-entity-2="ent0011" data-link-type="dependency" data-source-line="67" id="lnk20"><path d="M79.06,567.53 C105.49,574.22 135.3631,581.7689 164.6231,589.1689" fill="none" id="A3-to-UC06" style="stroke:#57606A;stroke-width:1.1;"/><polygon fill="#57606A" points="170.44,590.64,162.6955,584.5554,165.5926,589.4141,160.734,592.3112,170.44,590.64" style="stroke:#57606A;stroke-width:1.1;"/></g><!--link A3 to UC07--><g class="link" data-entity-1="ent0004" data-entity-2="ent0012" data-link-type="dependency" data-source-line="68" id="lnk21"><path d="M79.06,548.47 C105.69,541.73 135.923,534.0806 165.313,526.6506" fill="none" id="A3-to-UC07" style="stroke:#57606A;stroke-width:1.1;"/><polygon fill="#57606A" points="171.13,525.18,161.4241,523.5079,166.2825,526.4055,163.3849,531.2639,171.13,525.18" style="stroke:#57606A;stroke-width:1.1;"/></g><!--link A3 to UC08--><g class="link" data-entity-1="ent0004" data-entity-2="ent0013" data-link-type="dependency" data-source-line="69" id="lnk22"><path d="M73.17,508.93 C84.84,493.68 99.08,477.8 114.75,466 C131.04,453.73 145.5575,446.3276 164.0275,439.2476" fill="none" id="A3-to-UC08" style="stroke:#57606A;stroke-width:1.1;"/><polygon fill="#57606A" points="169.63,437.1,159.7945,436.5864,164.9613,438.8896,162.658,444.0564,169.63,437.1" style="stroke:#57606A;stroke-width:1.1;"/></g><?plantuml-src bLJ1Sjf03BtxAtR8eUc133O4wAKpb2OpkVGGGa--ABl2xB3Mqjqr6TBfn_G3UkedvCSgWqsCuqwdmqMMzAItUX86Lq44AvpEra4exL06RIcAtea7p460j4wX02FcYuLGQ8IoiiYH67CPCDyQ27Yr3hav1AK1Z_toi--G53fqxoE_qRG51xbu1Bd9d2r8pQsnJWG7v3d4vHfPdt45XGctbi8No57q5fXP5CkxNdVIiTP5l4g6oRGxPQ6VKSH98-ZNeEoJfaoim7XiH2f-Zj29UDG8R46f4d3kanl8S17s1aKvFA3CODJ8c3bddogArvFnO0pjuCDQomsXzoA-Yjl1nWExqQ_F6vorbO4ntoCXFfKAkjEGHd8wENcRhKViVJlEew-UN_LrU2rBhodwqMowz2Xv0OvjMrfVu0HnzU4_22N_91Ht419Y4NZlRDXlyUtmpkZUrtfr4ru1_oPjmcggHlAna_3Wd73Lyk-4TG2Z9RlELcvSaeI3VBsvqNmRc1BGos_IkUq9y68MluaxpBJdSr9LHb9dtF298hjJlaRX2rau3-QOCuoYqyRoaJ6-l7XEcvblXJRCXUslk7xv9GjZVUymfQAIk3TVzWTnIlTLOoTamLJWK7ev7yJjt2IbkINF1rdcGdZvQMp6jFRyh-EtblIZDbg1gWiaxGB3ifb7jmENqgwc9ImPJLYZXctKYDi2IJGboXtnTVAedNoTqXrfgPaXL3D8wT9XqCw-hr7NRTGufLjDBENp6MulCcH1sRTYBGftQZjk5vYaT4ExiklfMQouo86bPT5BYMqDdhJ1qwO62dVM55BpiXm4xomnBHTi5ej-_-DHgLSxYMP9bprisADeDgpjwuOzRjYJXZtz0m00?></g></svg>